<svg id="_01.0" data-name="01.0" xmlns="http://www.w3.org/2000/svg" viewBox="0 0 116.5 190.29">
  <defs>
    <style>
      .cls-1 {
        fill: #0e99fd;
      }

      .cls-2 {
        fill: #0000a8;
      }

      .cls-3 {
        fill: #00cdff;
      }

      .cls-4 {
        fill: #003;
      }

      .cls-5 {
        fill: none;
      }
    </style>
  </defs>
  <title>01-01</title>
  <g>
    <path class="cls-1" d="M62.55,180.65c-.44,5.09-17.41,12.23-34.18,8.21l1.11-21.36c-.23-4-.91-7.94-3.85-11.38-1.75-2.08-.35-4.83,1-5.11s.88-1.22.6-1.85c-.87-2,2.09-5.42,2.09-5.42,1.6-2.06,1-4.23-1.44-6.49-1.88-3.27-1.14-4.08,1.05-3.94a14.33,14.33,0,0,0,7.22-4.11c1.61-1.9,2-4.13,3.89-4.36s3.27,1,6.2,2c3.1.76,4.72.47,8.51-.39a14.45,14.45,0,0,0,7.93-5.69c.72-1.44,2.71-10.91,6.29-17.83a31.49,31.49,0,0,1,6-7.77h0c1.9-1.83,2.81-4.37,2.8-8l-.72-11.33c-.37-.08-1.35-6.43-.92-10.26a8.37,8.37,0,0,1,.32-1.56,18,18,0,0,1,3.26-7.54c-.49,3.33,4.33,3.59,5.44,1.44l.5-.74a1.48,1.48,0,0,1,2.26-.4,3.84,3.84,0,0,0,2.24.72c.53-.12.59-.28.68-.62h0a3.2,3.2,0,0,1,.21,2.28,36.37,36.37,0,0,0-1.24,4l-.14,0c-2.43.74-4.09,2.69-5.26,5.52-1.57,3-.76,6.34,1,9.75,1.06,1.65,1.93,3.22,1.8,4.49,0,4.37-1.71,7.74-3.63,11A2.72,2.72,0,0,0,84.11,97l3.19,3.72c-.39,4.75-2,8.51-5,11.13L69.53,126.72c-2.57,2.76-5.52,4.5-6.75,9.89S62.89,176.62,62.55,180.65Z"/>
    <path class="cls-2" d="M76.49,64.07a8.37,8.37,0,0,0-.32,1.56l-2.36-.25a3.82,3.82,0,0,0-.27-1.8l-.08-.24c-1-1.78.66-7.4,1.56-8.27.63-.93,2.22-1.68,3.06-.44l.13.26.39.79a3.69,3.69,0,0,0,1.16.81v0h0A18,18,0,0,0,76.49,64.07Z"/>
    <path class="cls-3" d="M80.16,56.08a.69.69,0,0,0-.13.11,1.74,1.74,0,0,0-.13.15l-.14.15a3.69,3.69,0,0,1-1.16-.81l-.39-.79-.13-.26c-.84-1.24-2.43-.49-3.06.44-.9.87-2.59,6.49-1.56,8.27l.08.24a3.82,3.82,0,0,1,.27,1.8c-.25,1.81-2.46,2.08-3.75,2a6.26,6.26,0,0,1-3.6-.91s-.32-.33-.78-.85l-2.3-2.77s0,0,0,0a11.43,11.43,0,0,1-.73-1.07c-1.31-3.42-8.39-4.71-10.2.87l-2.8-1.06a17.7,17.7,0,0,0,.83-2.29c.86-2.55,2.67-3.54,5.39-4.26a8.86,8.86,0,0,1,7.39,2.38l.54-.21a11.93,11.93,0,0,1,3.41-8.29C69,47,69.75,44.8,70.14,41.81c.93-4.24,3.34-5.87,7.72-4.41,3.9,1.44,4.88,3.74,4.45,6.7l-1.49,5.75a28.14,28.14,0,0,0-.65,6.22Z"/>
    <path class="cls-3" d="M80.17,56.07c1.69-1.4,3.38-3,7.51-1.69a6.35,6.35,0,0,1,3.21,2.54h0c-.09.34-.15.5-.68.62A3.84,3.84,0,0,1,88,56.83a1.48,1.48,0,0,0-2.26.4l-.5.74c-1.11,2.15-5.93,1.89-5.44-1.44h0a.54.54,0,0,1,.14-.19l.26-.26Z"/>
    <path class="cls-2" d="M90.08,75.56c.46,1.93,1.14,3.59,1,4.25a45.23,45.23,0,0,1-2.16,11.78,29.33,29.33,0,0,0-1.23,5.2l-.41,4L84.11,97a2.72,2.72,0,0,1-.47-3.14c1.92-3.26,3.65-6.63,3.63-11,.13-1.27-.74-2.84-1.8-4.49-1.77-3.41-2.58-6.72-1-9.75,1.17-2.83,2.83-4.78,5.26-5.52l.14,0a10.72,10.72,0,0,0-.54,3.39Z"/>
    <path class="cls-2" d="M79.9,56.34a.54.54,0,0,0-.14.19v0Z"/>
    <path class="cls-4" d="M75,95.19a3.71,3.71,0,0,0-1.15.11c-1.31.28-4.9,2.57-5.72,3.18l-.33.24-.73.54a16.14,16.14,0,0,0-3.34,4.56L61,109.93c-.8,2.11-1.47,2.92-2.3,3.48s-3.77,2.2-5.52,3.13c-6.41,3.53-13.28,3.65-20.69,0a7.3,7.3,0,0,1-3.65-4.69l-2.18-7.22s-1-4.46-1.07-5.39a12.76,12.76,0,0,1,.62-3.95,2.88,2.88,0,0,1,2.5-2.12,1.81,1.81,0,0,1,1.88,1,4.18,4.18,0,0,1,.13,2.26l-.15,2.42a6.86,6.86,0,0,0,.35,3.5,7.07,7.07,0,0,0,4.34,3.28,4.36,4.36,0,0,0,4-1.09,6.79,6.79,0,0,0,1.24-3.35,11.24,11.24,0,0,1,.22-2.32,1.32,1.32,0,0,1,2.2-.17c.39.78.78,4.24,1.24,7.35.78,3.14,7.45,2.77,7.78-1.09l.18-2.59a11.32,11.32,0,0,1,1.56-4.13A29.17,29.17,0,0,1,56.08,96c1.28-1.28,2.47-.43,3.67,0,1,.39,3.2-.78,4.41-2.6a15.69,15.69,0,0,0,1.19-3.89,16.83,16.83,0,0,1,.77-3.21c.45-1.07.89-2,1.82-2.13A3.41,3.41,0,0,1,70.7,85c1.92,1.25,3.9-.82,4-2.71,0-.66.16-2.27.16-2.27l.24-2.8a1.53,1.53,0,0,1,2-1.36l.72,11.33c0,3.6-.9,6.14-2.8,8Z"/>
    <path class="cls-2" d="M77.09,75.89a1.53,1.53,0,0,0-2,1.36l-.24,2.8s-.16,1.61-.16,2.27c-.09,1.89-2.07,4-4,2.71a3.41,3.41,0,0,0-2.76-.88c-.93.16-1.37,1.06-1.82,2.13a16.83,16.83,0,0,0-.77,3.21,15.69,15.69,0,0,1-1.19,3.89c-1.21,1.82-3.37,3-4.41,2.6-1.2-.43-2.39-1.28-3.67,0a29.17,29.17,0,0,0-2.33,2.29,11.32,11.32,0,0,0-1.56,4.13L52,105c-.33,3.86-7,4.23-7.78,1.09-.46-3.11-.85-6.57-1.24-7.35a1.32,1.32,0,0,0-2.2.17,11.24,11.24,0,0,0-.22,2.32,6.79,6.79,0,0,1-1.24,3.35,4.36,4.36,0,0,1-4,1.09A7.07,7.07,0,0,1,31,102.38a6.86,6.86,0,0,1-.35-3.5l.15-2.42a4.18,4.18,0,0,0-.13-2.26L31,94a5.22,5.22,0,0,1,.42,2.7c-.31,1.81,1.38,4.82,2,5.74l.13.18c1.38,1.53,4,2.27,5.2-.25a17.13,17.13,0,0,0,.48-2.7c.09-.55,0-1.56.48-2.15,1.56-1.46.11-3.22-.74-3.69a6.85,6.85,0,0,1-2-2.34,8.74,8.74,0,0,0-1.38-2.13l.72-.59,3.15,3.65.94,1.1c1.14.93,2.24.76,2.43-.78V90.16a20.1,20.1,0,0,0-.23-3.28l.23.84,1.46,2.84,1.32,3a12.56,12.56,0,0,1-.08,7.38,5.73,5.73,0,0,0-.27,1.92,2.25,2.25,0,0,0,4,.15l3.05-5.77.81-1.93a5.6,5.6,0,0,0-.35-4.38L50.33,87.4l-1.89-1.88L48,84.85c-.78-1.35-1.32-3.07.14-7.87l.5-1.24a1.57,1.57,0,0,0-.56-1.94,7.49,7.49,0,0,0-3.29-1.31v-2l3.77,0c2,.12,2.9-.4,2.82-2a16.92,16.92,0,0,1,1-5.78c1.81-5.58,8.89-4.29,10.2-.87a11.43,11.43,0,0,0,.73,1.07,1.68,1.68,0,0,0-2,.16c-.87.83-1.33,2.32-1.46,4.33a20.94,20.94,0,0,0,.85,5.81,23.67,23.67,0,0,0,5.4,8c.32.25.68.43,1,.62a1.53,1.53,0,0,0,1.63-.26,10.41,10.41,0,0,0,.78-6.18,14.43,14.43,0,0,0-.67-1.4,7.87,7.87,0,0,0-1.33-1.84,6.22,6.22,0,0,1-1.55-2.44c-.18-1.14,0-3.7-.24-4,.46.52.78.85.78.85a6.26,6.26,0,0,0,3.6.91c1.29.07,3.5-.2,3.75-2l2.36.25C75.74,69.46,76.72,75.81,77.09,75.89ZM65.31,85.67a3.52,3.52,0,0,0-.88-3.18l-5.06-4.13a2.55,2.55,0,0,1-1.14-1.69,68.41,68.41,0,0,0-1.17-7.52,1,1,0,0,0-2,.07c-.12.68-.36,5.17-.36,5.17v2h0c-.44-1-1.82-1.06-2.08-.3A16,16,0,0,0,52.28,79a11,11,0,0,1-.54,3.53c-.56,1.05-1,3.06,0,3.93.5.67,1,1.41,1.3,1.66L55.34,91c.6.64,1.3.59,2.06,0l1.35-1.2a7.11,7.11,0,0,1-1,1.79.83.83,0,0,0-.09.16c-1.06,2,1,3,1.25,3.14a2.23,2.23,0,0,0,1.83.13,6.71,6.71,0,0,0,2.94-3.18Z"/>
    <path class="cls-2" d="M73.83,95.3A3.71,3.71,0,0,1,75,95.19a31.49,31.49,0,0,0-6,7.77c-3.58,6.92-5.57,16.39-6.29,17.83a14.45,14.45,0,0,1-7.93,5.69c-3.79.86-5.41,1.15-8.51.39-2.93-1-4.34-2.26-6.2-2s-2.28,2.46-3.89,4.36a14.33,14.33,0,0,1-7.22,4.11c-2.19-.14-2.93.67-1.05,3.94,2.46,2.26,3,4.43,1.44,6.49,0,0-3,3.45-2.09,5.42.28.63.7,1.51-.6,1.85s-2.71,3-1,5.11c2.94,3.44,3.62,7.36,3.85,11.38l-1.11,21.36c-4.65-1.5-12.6-4.82-12.45-6.62s2.93-35.09,5.13-46.52c.39-3.9-1.69-7-4-11.24-5.36-7.12-6.49-14.58-6.81-21.89a161.12,161.12,0,0,1,1.7-19.39c-.28,2.55,3.27,4.18,5.84,1.19,5.05-5.24,8.74-5,14.7-4.8-.44-3,1.84-5.54,5-7.47a14.16,14.16,0,0,1,6.38-1.67h1v2A6,6,0,0,0,41,73.85a10,10,0,0,1-2.87,1.71l-.91.36c-2.81,1.83-2.17,3.47,1.8,4.94l.92.31a3.44,3.44,0,0,1,2,3.19l.67,2.35a1,1,0,0,0-.06-.14,7.31,7.31,0,0,0-.69-1,8.64,8.64,0,0,0-1.56-1.83A9.17,9.17,0,0,0,38,82.07a8.49,8.49,0,0,0-1.65-.84,2.29,2.29,0,0,0-2.65.92,3,3,0,0,0-.09,3.06,8.07,8.07,0,0,0,1.59,2.31l1.11,1.28-.72.59a5.38,5.38,0,0,0-1.51-1.29l-.38-.21a20.7,20.7,0,0,0-5.85-1.35c-1.67,0-2.58.55-2.39,2a5.41,5.41,0,0,0,2.84,3.06,8.36,8.36,0,0,1,2.47,2A5.11,5.11,0,0,1,31,94l-.41.17a1.81,1.81,0,0,0-1.88-1,2.88,2.88,0,0,0-2.5,2.12,12.76,12.76,0,0,0-.62,3.95c.06.93,1.07,5.39,1.07,5.39l2.18,7.22a7.3,7.3,0,0,0,3.65,4.69c7.41,3.65,14.28,3.53,20.69,0,1.75-.93,4.68-2.59,5.52-3.13s1.5-1.37,2.3-3.48l2.68-6.11a16.14,16.14,0,0,1,3.34-4.56l.73-.54.33-.24C68.93,97.87,72.52,95.58,73.83,95.3Z"/>
    <path class="cls-4" d="M69.47,75.3a10.41,10.41,0,0,1-.78,6.18,1.53,1.53,0,0,1-1.63.26c-.27-.19-.63-.37-1-.62a23.67,23.67,0,0,1-5.4-8,20.94,20.94,0,0,1-.85-5.81c.13-2,.59-3.5,1.46-4.33a1.68,1.68,0,0,1,2-.16s0,0,0,0c.72,1,1.65,2,2.3,2.77.25.29.06,2.85.24,4a6.22,6.22,0,0,0,1.55,2.44A7.87,7.87,0,0,1,68.8,73.9,14.43,14.43,0,0,1,69.47,75.3Z"/>
    <path class="cls-1" d="M64.43,82.49a3.52,3.52,0,0,1,.88,3.18l-1.62,6.19A6.71,6.71,0,0,1,60.75,95a2.23,2.23,0,0,1-1.83-.13c-.24-.14-2.31-1.1-1.25-3.14a.83.83,0,0,1,.09-.16,7.11,7.11,0,0,0,1-1.79c.69-1.8.58-3.81-.89-4.88-2-1.5-2.75-1.36-3-5.65v-.2l-.1-2.68v-2s.24-4.49.36-5.17a1,1,0,0,1,2-.07,68.41,68.41,0,0,1,1.17,7.52,2.55,2.55,0,0,0,1.14,1.69Z"/>
    <path class="cls-4" d="M57.86,84.94c1.47,1.07,1.58,3.08.89,4.88L57.4,91c-.76.59-1.46.64-2.06,0L53,88.08c-.25-.25-.8-1-1.3-1.66-1-.87-.56-2.88,0-3.93A11,11,0,0,0,52.28,79a16,16,0,0,1,.35-2.85c.26-.76,1.64-.67,2.08.3h0l.1,2.68v.2C55.11,83.58,55.82,83.44,57.86,84.94Z"/>
    <path class="cls-1" d="M52.81,90.92a5.6,5.6,0,0,1,.35,4.38l-.81,1.93L49.3,103a2.25,2.25,0,0,1-4-.15,5.73,5.73,0,0,1,.27-1.92,12.56,12.56,0,0,0,.08-7.38l-1.32-3-1.46-2.84-.23-.84a.7.7,0,0,1-.06-.17l-.67-2.35a3.44,3.44,0,0,0-2-3.19L39,80.86c-4-1.47-4.61-3.11-1.8-4.94l.91-.36A10,10,0,0,0,41,73.85a6,6,0,0,1,3.81-1.36A7.49,7.49,0,0,1,48.1,73.8a1.57,1.57,0,0,1,.56,1.94L48.16,77c-1.46,4.8-.92,6.52-.14,7.87l.42.67,1.89,1.88Z"/>
    <path class="cls-3" d="M49.64,61.58l2.8,1.06a16.92,16.92,0,0,0-1,5.78c.08,1.61-.83,2.13-2.82,2l-3.77,0h-1a14.16,14.16,0,0,0-6.38,1.67c-3.12,1.93-5.4,4.43-5,7.47-6-.16-9.65-.44-14.7,4.8-2.57,3-6.12,1.36-5.84-1.19a0,0,0,0,1,0,0c0-.09,0-.2,0-.29.14-1.55.48-2.75,3.1-3.24,3.66-.15,4.06-1.47,6.81-3.8A7.38,7.38,0,0,1,26,74.1a2.91,2.91,0,0,0,3-1.61,20.41,20.41,0,0,1,15.35-7.08,10.94,10.94,0,0,0,2.54-.23c.94,0,1.46-.61,1.78-1.51A17,17,0,0,0,49.64,61.58Z"/>
    <path class="cls-4" d="M42.87,90.16v2.61c-.19,1.54-1.29,1.71-2.43.78l-.94-1.1L36.35,88.8l-1.11-1.28a8.07,8.07,0,0,1-1.59-2.31,3,3,0,0,1,.09-3.06,2.29,2.29,0,0,1,2.65-.92,8.49,8.49,0,0,1,1.65.84,9.17,9.17,0,0,1,2.23,1.63,8.64,8.64,0,0,1,1.56,1.83,7.31,7.31,0,0,1,.69,1,1,1,0,0,1,.06.14.7.7,0,0,0,.06.17A20.1,20.1,0,0,1,42.87,90.16Z"/>
    <path class="cls-1" d="M39,93.86c.85.47,2.3,2.23.74,3.69-.52.59-.39,1.6-.48,2.15a17.13,17.13,0,0,1-.48,2.7c-1.19,2.52-3.82,1.78-5.2.25l-.13-.18c-.63-.92-2.32-3.93-2-5.74A5.22,5.22,0,0,0,31,94a5.11,5.11,0,0,0-.22-.48,8.36,8.36,0,0,0-2.47-2,5.41,5.41,0,0,1-2.84-3.06c-.19-1.44.72-2,2.39-2a20.7,20.7,0,0,1,5.85,1.35l.38.21a5.38,5.38,0,0,1,1.51,1.29A8.74,8.74,0,0,1,37,91.52,6.85,6.85,0,0,0,39,93.86Z"/>
  </g>
  <line class="cls-5" x1="62.63" y1="120.87" x2="66.98" y2="128.96"/>
</svg>
